<svg id="Layer_1" data-name="Layer 1" xmlns="http://www.w3.org/2000/svg" viewBox="0 0 32 32"><defs><style>.cls-1{fill:none;stroke:#000;stroke-linecap:round;stroke-linejoin:round;stroke-width:2px;}</style></defs><title>gear(1)</title><path class="cls-1" d="M25,15.14V11.86l-3.75-1.07a8.16,8.16,0,0,0-.35-.84l1.9-3.41L20.47,4.21,17.06,6.1a8.16,8.16,0,0,0-.84-.35L15.14,2H11.86L10.78,5.75a8.16,8.16,0,0,0-.84.35L6.53,4.21,4.21,6.53,6.1,9.94a8.16,8.16,0,0,0-.35.84L2,11.86v3.29l3.75,1.07a8.16,8.16,0,0,0,.35.84l-1.9,3.41,2.32,2.32,3.41-1.9a8.16,8.16,0,0,0,.84.35L11.86,25h3.29l1.07-3.75a8.16,8.16,0,0,0,.84-.35l3.41,1.9,2.32-2.32-1.9-3.41a8.16,8.16,0,0,0,.35-.84Z"/><circle class="cls-1" cx="13.5" cy="13.5" r="3.5"/><circle class="cls-1" cx="26" cy="26" r="3"/><line class="cls-1" x1="30" y1="26" x2="29" y2="26"/><line class="cls-1" x1="23" y1="26" x2="22" y2="26"/><line class="cls-1" x1="26" y1="30" x2="26" y2="29"/><line class="cls-1" x1="26" y1="23" x2="26" y2="22"/><line class="cls-1" x1="28.83" y1="28.83" x2="28.12" y2="28.12"/><line class="cls-1" x1="23.88" y1="23.88" x2="23.17" y2="23.17"/><line class="cls-1" x1="23.17" y1="28.83" x2="23.88" y2="28.12"/><line class="cls-1" x1="28.12" y1="23.88" x2="28.83" y2="23.17"/></svg>