<svg id="Layer_1" data-name="Layer 1" xmlns="http://www.w3.org/2000/svg" viewBox="0 0 32 32"><defs><style>.cls-1{fill:none;stroke:#000;stroke-linecap:round;stroke-linejoin:round;stroke-width:2px;}</style></defs><title>gear</title><path class="cls-1" d="M30,18V14l-4.57-1.31a9.94,9.94,0,0,0-.42-1l2.31-4.16L24.49,4.69,20.33,7a9.93,9.93,0,0,0-1-.42L18,2H14L12.69,6.57a9.93,9.93,0,0,0-1,.42L7.51,4.69,4.69,7.51,7,11.67a9.94,9.94,0,0,0-.42,1L2,14v4l4.57,1.31a9.94,9.94,0,0,0,.42,1L4.69,24.49l2.83,2.83L11.67,25a9.94,9.94,0,0,0,1,.42L14,30h4l1.31-4.57a9.94,9.94,0,0,0,1-.42l4.16,2.31,2.83-2.83L25,20.33a9.94,9.94,0,0,0,.42-1Z"/><circle class="cls-1" cx="16" cy="16" r="4"/></svg>