<svg id="Layer_1" data-name="Layer 1" xmlns="http://www.w3.org/2000/svg" viewBox="0 0 32 32"><defs><style>.cls-1{fill:none;stroke:#000;stroke-linecap:round;stroke-linejoin:round;stroke-width:2px;}</style></defs><title>kacamata</title><path class="cls-1" d="M19.95,15h6.1A1.95,1.95,0,0,1,28,16.95v2.9A3.15,3.15,0,0,1,24.85,23h-3.7A3.15,3.15,0,0,1,18,19.85v-2.9A1.95,1.95,0,0,1,19.95,15Z"/><polyline class="cls-1" points="28 17 30 17 28 9 26 9"/><path class="cls-1" d="M7.15,15h3.7A3.15,3.15,0,0,1,14,18.15v2.9A1.95,1.95,0,0,1,12.05,23H5.95A1.95,1.95,0,0,1,4,21.05v-2.9A3.15,3.15,0,0,1,7.15,15Z" transform="translate(18 38) rotate(-180)"/><polyline class="cls-1" points="4 17 2 17 4 9 6 9"/><path class="cls-1" d="M14,19l.44-.44a2.21,2.21,0,0,1,3.12,0L18,19"/></svg>