<svg id="Layer_1" data-name="Layer 1" xmlns="http://www.w3.org/2000/svg" viewBox="0 0 32 32"><defs><style>.cls-1{fill:none;stroke:#000;stroke-linecap:round;stroke-linejoin:round;stroke-width:2px;}</style></defs><title>lonceng</title><path class="cls-1" d="M24,23.67V13A8,8,0,0,0,8,13V23.67L6,27H26Z"/><path class="cls-1" d="M14,27h4a0,0,0,0,1,0,0v1a2,2,0,0,1-2,2h0a2,2,0,0,1-2-2V27A0,0,0,0,1,14,27Z"/><path class="cls-1" d="M14,2h4a0,0,0,0,1,0,0V3a2,2,0,0,1-2,2h0a2,2,0,0,1-2-2V2A0,0,0,0,1,14,2Z" transform="translate(32 7) rotate(180)"/></svg>