<svg id="Layer_1" data-name="Layer 1" xmlns="http://www.w3.org/2000/svg" viewBox="0 0 32 32"><defs><style>.cls-1{fill:none;stroke:#000;stroke-linecap:round;stroke-linejoin:round;stroke-width:2px;}</style></defs><title>paste</title><line class="cls-1" x1="2" y1="2" x2="4" y2="2"/><line class="cls-1" x1="8" y1="2" x2="10" y2="2"/><line class="cls-1" x1="14" y1="2" x2="16" y2="2"/><line class="cls-1" x1="16" y1="6" x2="16" y2="8"/><line class="cls-1" x1="2" y1="6" x2="2" y2="8"/><line class="cls-1" x1="2" y1="18" x2="2" y2="20"/><line class="cls-1" x1="2" y1="12" x2="2" y2="14"/><line class="cls-1" x1="2" y1="20" x2="4" y2="20"/><line class="cls-1" x1="8" y1="20" x2="10" y2="20"/><line class="cls-1" x1="14" y1="20" x2="16" y2="20"/><path class="cls-1" d="M19,5h3.52C23.89,5,25,6.48,25,8.3V9"/><polyline class="cls-1" points="24 8 25 9 26 8"/><path class="cls-1" d="M16,12H27l3,3V30H16Z"/></svg>