<svg id="Layer_1" data-name="Layer 1" xmlns="http://www.w3.org/2000/svg" viewBox="0 0 32 32"><defs><style>.cls-1{fill:none;stroke:#000;stroke-linecap:round;stroke-linejoin:round;stroke-width:2px;}</style></defs><title>payung</title><path class="cls-1" d="M2,16a14,14,0,0,1,28,0"/><path class="cls-1" d="M11,16c0-7.73,2.24-14,5-14s5,6.27,5,14"/><path class="cls-1" d="M21,15.61c0-1.37,2-2.48,4.5-2.48S30,14.25,30,15.61"/><path class="cls-1" d="M11,15.75C11,14.23,13.24,13,16,13s5,1.23,5,2.75"/><path class="cls-1" d="M2,15.61c0-1.37,2-2.48,4.5-2.48S11,14.25,11,15.61"/><path class="cls-1" d="M16,13V28a2,2,0,0,0,2,2h0a2,2,0,0,0,2-2V27"/></svg>