<svg id="Layer_1" data-name="Layer 1" xmlns="http://www.w3.org/2000/svg" viewBox="0 0 32 32"><defs><style>.cls-1{fill:none;stroke:#000;stroke-linecap:round;stroke-linejoin:round;stroke-width:2px;}</style></defs><title>qote</title><path class="cls-1" d="M19.18,11h1.65A1.18,1.18,0,0,1,22,12.18V15a0,0,0,0,1,0,0H19.18A1.18,1.18,0,0,1,18,13.82V12.18A1.18,1.18,0,0,1,19.18,11Z"/><path class="cls-1" d="M22,14v1.76A3.62,3.62,0,0,1,20,19h0"/><path class="cls-1" d="M11.18,11h1.65A1.18,1.18,0,0,1,14,12.18V15a0,0,0,0,1,0,0H11.18A1.18,1.18,0,0,1,10,13.82V12.18A1.18,1.18,0,0,1,11.18,11Z"/><path class="cls-1" d="M14,14v1.76A3.62,3.62,0,0,1,12,19h0"/></svg>