<svg id="Layer_1" data-name="Layer 1" xmlns="http://www.w3.org/2000/svg" viewBox="0 0 32 32"><defs><style>.cls-1{fill:none;stroke:#000;stroke-linecap:round;stroke-linejoin:round;stroke-width:2px;}</style></defs><title>group</title><path class="cls-1" d="M15.6,7,16,7l.4,0"/><path class="cls-1" d="M26,9a5,5,0,0,1-5,5l-.4,0a5,5,0,0,0-4.2-7A5,5,0,0,1,26,9Z"/><path class="cls-1" d="M14.85,16.87A5.4,5.4,0,0,0,16,17a7.12,7.12,0,0,0-1.39.13A2.84,2.84,0,0,1,14.85,16.87Z"/><path class="cls-1" d="M28.45,25H24.8c-1-4.1-3.85-7.22-7.41-7.87A7.12,7.12,0,0,0,16,17a5.4,5.4,0,0,0,1.15-.13A5,5,0,0,0,20.58,14H21c4.44,0,8.14,3.8,9,8.84A1.76,1.76,0,0,1,28.45,25Z"/><path class="cls-1" d="M11,12a5,5,0,0,0,.4,2L11,14a5,5,0,1,1,4.6-7A5,5,0,0,0,11,12Z"/><path class="cls-1" d="M23.45,28H8.55A1.76,1.76,0,0,1,7,25.84c0-.28.1-.57.17-.84,1-4.1,3.85-7.22,7.41-7.87a7.5,7.5,0,0,1,2.78,0C21,17.78,23.84,20.9,24.8,25c.07.27.12.56.17.84A1.76,1.76,0,0,1,23.45,28Z"/><path class="cls-1" d="M14.85,16.87A5.4,5.4,0,0,0,16,17a7.12,7.12,0,0,0-1.39.13C11,17.78,8.16,20.9,7.2,25H3.55A1.76,1.76,0,0,1,2,22.84c.83-5,4.53-8.84,9-8.84h.42A5,5,0,0,0,14.85,16.87Z"/></svg>