<svg id="Layer_1" data-name="Layer 1" xmlns="http://www.w3.org/2000/svg" viewBox="0 0 32 32"><defs><style>.cls-1{fill:none;stroke:#000;stroke-linecap:round;stroke-linejoin:round;stroke-width:2px;}</style></defs><title>handphone</title><path class="cls-1" d="M5,3l.64-.64a1.81,1.81,0,0,1,2.53-.19L11,5a1.81,1.81,0,0,1-.19,2.53l-.64.64C7.93,10.35,9.21,15.21,13,19s8.65,5.07,10.86,2.86l.64-.64A1.81,1.81,0,0,1,27,21l2.8,2.8a1.81,1.81,0,0,1-.19,2.53L29,27l-1,1c-3.87,3.87-12.37,1.63-19-5S.13,7.87,4,4Z"/></svg>