<svg id="Layer_1" data-name="Layer 1" xmlns="http://www.w3.org/2000/svg" viewBox="0 0 32 32"><defs><style>.cls-1{fill:none;stroke:#000;stroke-linecap:round;stroke-linejoin:round;stroke-width:2px;}</style></defs><title>handshake</title><polyline class="cls-1" points="30 15 27 16 22.77 5.94 28 2"/><path class="cls-1" d="M23,6c-2.07-1.22-4.08-1.45-6,0l-5.65,4.94a2.1,2.1,0,0,0,.44,3.46h0A2.1,2.1,0,0,0,14,14.16L20,9"/><path class="cls-1" d="M4,15H4a29.34,29.34,0,0,0,7,9.59l4.52,3.82a2.08,2.08,0,0,0,3,.07h0a2.08,2.08,0,0,0,0-2.93L17,24"/><path class="cls-1" d="M18,25l.53.53a2.08,2.08,0,0,0,2.93,0l.07-.07a2.08,2.08,0,0,0,0-2.93L20,21"/><path class="cls-1" d="M23,18l1.53,1.53a2.08,2.08,0,0,1,0,2.93l-.07.07a2.08,2.08,0,0,1-2.93,0l0,0"/><path class="cls-1" d="M24.33,19.25l.2.25a2.08,2.08,0,0,0,3,0l0,0a2.08,2.08,0,0,0,0-2.93L26,15,20.5,9.5"/><path class="cls-1" d="M11,6c2.17-1.53,5.54,0,5.54,0"/><polyline class="cls-1" points="2 14 3 15 12 5 9 2"/></svg>