<svg id="Layer_1" data-name="Layer 1" xmlns="http://www.w3.org/2000/svg" viewBox="0 0 32 32"><defs><style>.cls-1{fill:none;stroke:#000;stroke-linecap:round;stroke-linejoin:round;stroke-width:2px;}</style></defs><title>hukum (rumah)</title><polyline class="cls-1" points="2 9 16 2 30 9"/><path class="cls-1" d="M22,11h6a0,0,0,0,1,0,0v2.56A1.44,1.44,0,0,1,26.56,15H23.44A1.44,1.44,0,0,1,22,13.56V11A0,0,0,0,1,22,11Z"/><rect class="cls-1" x="23" y="15" width="4" height="11"/><rect class="cls-1" x="5" y="15" width="4" height="11"/><path class="cls-1" d="M4,11h6a0,0,0,0,1,0,0v2.56A1.44,1.44,0,0,1,8.56,15H5.44A1.44,1.44,0,0,1,4,13.56V11A0,0,0,0,1,4,11Z"/><path class="cls-1" d="M4,26h6a0,0,0,0,1,0,0v2.56A1.44,1.44,0,0,1,8.56,30H5.44A1.44,1.44,0,0,1,4,28.56V26A0,0,0,0,1,4,26Z" transform="translate(14 56) rotate(180)"/><path class="cls-1" d="M22,26h6a0,0,0,0,1,0,0v2.56A1.44,1.44,0,0,1,26.56,30H23.44A1.44,1.44,0,0,1,22,28.56V26A0,0,0,0,1,22,26Z" transform="translate(50 56) rotate(180)"/><line class="cls-1" x1="2" y1="30" x2="30" y2="30"/><polyline class="cls-1" points="2 9 2 11 30 11 30 9"/><line class="cls-1" x1="16" y1="6" x2="16" y2="7"/></svg>